<mxfile host="app.diagrams.net" modified="2024-03-20T17:04:53.294Z" agent="Mozilla/5.0 (Windows NT 10.0; Win64; x64; rv:124.0) Gecko/20100101 Firefox/124.0" etag="ureitGEyIK4xUXFDHjFs" scale="1" border="0" version="24.0.7" type="device">
  <diagram name="Page-1" id="dGpcCCkFvZ3gfHvRZ5da">
    <mxGraphModel dx="1146" dy="840" grid="0" gridSize="10" guides="1" tooltips="1" connect="1" arrows="1" fold="1" page="0" pageScale="1" pageWidth="850" pageHeight="1100" math="0" shadow="0">
      <root>
        <mxCell id="0" />
        <mxCell id="1" parent="0" />
        <mxCell id="WsQo84fdxOQ58Xq3IZKJ-16" value="&lt;div align=&quot;left&quot;&gt;&lt;br&gt;&lt;/div&gt;" style="rounded=1;whiteSpace=wrap;html=1;" vertex="1" parent="1">
          <mxGeometry x="-297" y="-50" width="199" height="125" as="geometry" />
        </mxCell>
        <mxCell id="b6xKFxV9w5poojM2PfyC-12" value="" style="endArrow=classic;startArrow=classic;html=1;rounded=0;fontSize=12;startSize=8;endSize=8;curved=1;exitX=1;exitY=0.5;exitDx=0;exitDy=0;entryX=0;entryY=0.5;entryDx=0;entryDy=0;" parent="1" source="Db79J9I0t9KoaXQ6VM3Z-3" target="Db79J9I0t9KoaXQ6VM3Z-4" edge="1">
          <mxGeometry width="50" height="50" relative="1" as="geometry">
            <mxPoint x="180" y="139.7" as="sourcePoint" />
            <mxPoint x="275.99999999999807" y="139.7" as="targetPoint" />
          </mxGeometry>
        </mxCell>
        <mxCell id="Db79J9I0t9KoaXQ6VM3Z-3" value="&lt;div&gt;Raspberry-Pi&lt;/div&gt;&lt;div&gt;(MC + CC)&lt;br&gt;&lt;/div&gt;" style="rounded=1;whiteSpace=wrap;html=1;" parent="1" vertex="1">
          <mxGeometry width="120" height="60" as="geometry" />
        </mxCell>
        <mxCell id="Db79J9I0t9KoaXQ6VM3Z-4" value="&lt;div&gt;Mobile Phone&lt;/div&gt;" style="rounded=1;whiteSpace=wrap;html=1;" parent="1" vertex="1">
          <mxGeometry x="200" width="120" height="60" as="geometry" />
        </mxCell>
        <mxCell id="WsQo84fdxOQ58Xq3IZKJ-1" value="Arduino - MTC" style="rounded=1;whiteSpace=wrap;html=1;" vertex="1" parent="1">
          <mxGeometry x="-280" width="165" height="60" as="geometry" />
        </mxCell>
        <mxCell id="WsQo84fdxOQ58Xq3IZKJ-2" value="" style="endArrow=classic;startArrow=classic;html=1;rounded=0;fontSize=12;startSize=8;endSize=8;curved=1;entryX=1;entryY=0.5;entryDx=0;entryDy=0;exitX=0;exitY=0.5;exitDx=0;exitDy=0;" edge="1" parent="1" source="Db79J9I0t9KoaXQ6VM3Z-3" target="WsQo84fdxOQ58Xq3IZKJ-1">
          <mxGeometry width="50" height="50" relative="1" as="geometry">
            <mxPoint x="12" y="8" as="sourcePoint" />
            <mxPoint x="62" y="-42" as="targetPoint" />
          </mxGeometry>
        </mxCell>
        <mxCell id="WsQo84fdxOQ58Xq3IZKJ-17" value="Mouse Trap System" style="text;html=1;align=center;verticalAlign=middle;whiteSpace=wrap;rounded=0;fontSize=16;" vertex="1" parent="1">
          <mxGeometry x="-280" y="-40" width="150" height="30" as="geometry" />
        </mxCell>
        <mxCell id="WsQo84fdxOQ58Xq3IZKJ-25" value="Wi-Fi" style="text;html=1;align=center;verticalAlign=middle;whiteSpace=wrap;rounded=0;fontSize=16;" vertex="1" parent="1">
          <mxGeometry x="-87" y="-5" width="60" height="30" as="geometry" />
        </mxCell>
        <mxCell id="WsQo84fdxOQ58Xq3IZKJ-26" value="Wi-Fi" style="text;html=1;align=center;verticalAlign=middle;whiteSpace=wrap;rounded=0;fontSize=16;" vertex="1" parent="1">
          <mxGeometry x="130" y="-5" width="60" height="30" as="geometry" />
        </mxCell>
      </root>
    </mxGraphModel>
  </diagram>
</mxfile>
